<svg width="25" height="21" viewBox="0 0 25 21" fill="none" xmlns="http://www.w3.org/2000/svg">
<path d="M15.3688 20.4337L23.5824 12.2302C24.3348 11.4742 24.3348 10.2471 23.5824 9.49365L15.3688 1.2853C14.6101 0.529305 13.3821 0.533098 12.6234 1.2853C11.8723 2.04256 11.8723 3.26461 12.6234 4.02187L17.4285 8.82012L2.01437 8.82012C0.900866 8.82012 -1.90735e-05 9.72557 -1.90735e-05 10.8463C-1.90735e-05 11.9657 0.900866 12.8724 2.01437 12.8724L17.4575 12.8724L12.6234 17.696C11.8723 18.452 11.8723 19.6753 12.6234 20.4313C13.3809 21.1885 14.6089 21.1898 15.3688 20.4338V20.4337Z" fill="white"/>
</svg>
