<svg width="90" height="190" viewBox="0 0 154 280" fill="none" xmlns="http://www.w3.org/2000/svg">
<path fill-rule="evenodd" clip-rule="evenodd" d="M-14 -10H154V181H-14V-10Z" fill="#4AF6CD"/>
<path d="M46.22 145.36C46.22 142.2 46.68 139.42 47.6 137.02C48.52 134.58 49.9 132.4 51.74 130.48L57.62 135.46C55.34 138.34 54.2 141.36 54.2 144.52C54.2 146.16 54.52 147.42 55.16 148.3C55.76 149.14 56.62 149.56 57.74 149.56C58.54 149.56 59.2 149.34 59.72 148.9C60.24 148.46 60.74 147.72 61.22 146.68C61.7 145.64 62.3 144 63.02 141.76C64.38 137.48 66.1 134.36 68.18 132.4C70.22 130.4 73.06 129.4 76.7 129.4C79.34 129.4 81.68 130.08 83.72 131.44C85.72 132.8 87.28 134.78 88.4 137.38C89.52 139.94 90.08 142.96 90.08 146.44C90.08 153.08 88.06 158.5 84.02 162.7L77.96 157.24C80.68 153.92 82.04 150.46 82.04 146.86C82.04 144.98 81.64 143.52 80.84 142.48C80 141.44 78.9 140.92 77.54 140.92C76.58 140.92 75.8 141.12 75.2 141.52C74.56 141.92 74 142.64 73.52 143.68C73 144.68 72.44 146.16 71.84 148.12C70.36 152.84 68.58 156.16 66.5 158.08C64.42 160 61.8 160.96 58.64 160.96C56.16 160.96 53.98 160.3 52.1 158.98C50.22 157.62 48.78 155.76 47.78 153.4C46.74 151 46.22 148.32 46.22 145.36ZM75.02 91.9553C77.9 91.9553 80.48 92.5953 82.76 93.8753C85.04 95.1153 86.84 96.9953 88.16 99.5153C89.44 102.035 90.08 105.115 90.08 108.755C90.08 114.275 88.74 118.455 86.06 121.295C83.34 124.135 79.66 125.555 75.02 125.555H47.3V114.455H74.66C77.18 114.455 79.04 114.015 80.24 113.135C81.4 112.215 81.98 110.755 81.98 108.755C81.98 106.755 81.38 105.315 80.18 104.435C78.98 103.555 77.14 103.115 74.66 103.115H47.3V91.9553H75.02ZM73.64 71.9477V75.0077H89V86.1077H47.3V71.6477C47.3 65.7677 48.36 61.3877 50.48 58.5077C52.6 55.5877 55.86 54.1277 60.26 54.1277C62.9 54.1277 65.1 54.7477 66.86 55.9877C68.62 57.1877 70.2 59.1277 71.6 61.8077L89 51.4277V63.7877L73.64 71.9477ZM66.08 75.0077V71.2877C66.08 67.4477 64.14 65.5277 60.26 65.5277C58.46 65.5277 57.14 66.0677 56.3 67.1477C55.46 68.1877 55.04 69.7677 55.04 71.8877V75.0077H66.08ZM89 48.9006H47.3V23.2806L55.16 24.4206V37.8006H65.18V26.0406H73.04V37.8006H89V48.9006Z" fill="white"/>
<path d="M46.22 257.92C46.22 252.36 47.98 247.58 51.5 243.58L57.2 249.04C56.12 250.56 55.34 251.94 54.86 253.18C54.34 254.38 54.08 255.76 54.08 257.32C54.08 260.32 55.24 262.68 57.56 264.4C59.88 266.08 63.42 266.92 68.18 266.92C71.66 266.92 74.42 266.64 76.46 266.08C78.46 265.52 79.9 264.68 80.78 263.56C81.66 262.4 82.1 260.92 82.1 259.12C82.1 257.32 81.72 255.68 80.96 254.2H72.38V258.94L64.76 260.02V243.46H85.52C86.96 245.62 88.08 248.06 88.88 250.78C89.68 253.5 90.08 256.18 90.08 258.82C90.08 271.86 82.76 278.38 68.12 278.38C63.56 278.38 59.64 277.5 56.36 275.74C53.04 273.94 50.52 271.5 48.8 268.42C47.08 265.34 46.22 261.84 46.22 257.92ZM46.22 220.335C46.22 214.295 48.14 209.595 51.98 206.235C55.82 202.875 61.2 201.195 68.12 201.195C72.64 201.195 76.56 201.955 79.88 203.475C83.16 204.955 85.68 207.135 87.44 210.015C89.2 212.895 90.08 216.335 90.08 220.335C90.08 226.375 88.16 231.075 84.32 234.435C80.48 237.755 75.08 239.415 68.12 239.415C63.6 239.415 59.7 238.675 56.42 237.195C53.14 235.675 50.62 233.495 48.86 230.655C47.1 227.775 46.22 224.335 46.22 220.335ZM54.2 220.335C54.2 222.935 55.28 224.855 57.44 226.095C59.6 227.295 63.16 227.895 68.12 227.895C73.08 227.895 76.66 227.275 78.86 226.035C81.02 224.795 82.1 222.895 82.1 220.335C82.1 217.695 81.02 215.775 78.86 214.575C76.7 213.375 73.12 212.775 68.12 212.775C63.16 212.775 59.6 213.375 57.44 214.575C55.28 215.775 54.2 217.695 54.2 220.335Z" fill="white"/>
<rect x="69" y="191" width="20" height="1" transform="rotate(-90 69 191)" fill="white"/>
</svg>
